<?xml version="1.0" encoding="UTF-8"?>
<svg xmlns="http://www.w3.org/2000/svg" xmlns:xlink="http://www.w3.org/1999/xlink" width="180000" height="144000" viewBox="0 0 180000 144000">
<defs>
<g>
<g id="glyph-0-0">
<path d="M 2718.890625 -1816.890625 C 2718.890625 -1203.523438 2613.65625 -738.773438 2403.1875 -422.640625 C 2192.71875 -106.515625 1877.019531 51.546875 1456.09375 51.546875 C 624.53125 51.546875 208.75 -571.265625 208.75 -1816.890625 C 208.75 -2251.566406 254.273438 -2606.351562 345.328125 -2881.25 C 436.390625 -3156.144531 572.976562 -3358.878906 755.09375 -3489.453125 C 937.21875 -3620.035156 1177.753906 -3685.328125 1476.703125 -3685.328125 C 1906.234375 -3685.328125 2220.644531 -3529.835938 2419.9375 -3218.859375 C 2619.238281 -2907.878906 2718.890625 -2440.554688 2718.890625 -1816.890625 Z M 1992.140625 -1816.890625 C 1992.140625 -2151.921875 1975.816406 -2412.210938 1943.171875 -2597.765625 C 1910.523438 -2783.316406 1858.117188 -2916.46875 1785.953125 -2997.21875 C 1713.796875 -3077.96875 1608.992188 -3118.34375 1471.546875 -3118.34375 C 1325.515625 -3118.34375 1215.128906 -3077.535156 1140.390625 -2995.921875 C 1065.648438 -2914.316406 1012.382812 -2781.164062 980.59375 -2596.46875 C 948.8125 -2411.78125 932.921875 -2151.921875 932.921875 -1816.890625 C 932.921875 -1485.296875 949.671875 -1226.289062 983.171875 -1039.875 C 1016.679688 -853.46875 1069.945312 -719.882812 1142.96875 -639.125 C 1215.988281 -558.375 1322.082031 -518 1461.25 -518 C 1598.695312 -518 1704.785156 -560.519531 1779.515625 -645.5625 C 1854.253906 -730.613281 1908.375 -866.773438 1941.875 -1054.046875 C 1975.382812 -1241.328125 1992.140625 -1495.609375 1992.140625 -1816.890625 Z M 1992.140625 -1816.890625 "/>
</g>
<g id="glyph-0-1">
<path d="M 358.21875 0 L 358.21875 -786.03125 L 1103.015625 -786.03125 L 1103.015625 0 Z M 358.21875 0 "/>
</g>
<g id="glyph-0-2">
<path d="M 2788.46875 -1208.6875 C 2788.46875 -823.832031 2668.628906 -517.578125 2428.953125 -289.921875 C 2189.285156 -62.273438 1860.703125 51.546875 1443.203125 51.546875 C 1078.960938 51.546875 787.3125 -30.488281 568.25 -194.5625 C 349.195312 -358.644531 213.898438 -596.175781 162.359375 -907.15625 L 886.546875 -966.4375 C 924.335938 -811.800781 991.335938 -699.257812 1087.546875 -628.8125 C 1183.765625 -558.375 1304.894531 -523.15625 1450.9375 -523.15625 C 1631.332031 -523.15625 1775.21875 -580.710938 1882.59375 -695.828125 C 1989.976562 -810.941406 2043.671875 -976.738281 2043.671875 -1193.21875 C 2043.671875 -1383.925781 1992.988281 -1536.40625 1891.625 -1650.65625 C 1790.257812 -1764.914062 1648.515625 -1822.046875 1466.390625 -1822.046875 C 1265.378906 -1822.046875 1101.300781 -1743.875 974.15625 -1587.53125 L 268.03125 -1587.53125 L 394.296875 -3631.203125 L 2577.15625 -3631.203125 L 2577.15625 -3092.578125 L 1051.484375 -3092.578125 L 992.203125 -2175.109375 C 1167.453125 -2329.742188 1386.507812 -2407.0625 1649.375 -2407.0625 C 1994.707031 -2407.0625 2270.890625 -2299.675781 2477.921875 -2084.90625 C 2684.953125 -1870.144531 2788.46875 -1578.070312 2788.46875 -1208.6875 Z M 2788.46875 -1208.6875 "/>
</g>
<g id="glyph-0-3">
<path d="M 206.171875 -1054.046875 L 206.171875 -1682.875 L 1546.296875 -1682.875 L 1546.296875 -1054.046875 Z M 206.171875 -1054.046875 "/>
</g>
<g id="glyph-0-4">
<path d="M 2703.421875 -3056.5 C 2540.203125 -2798.78125 2386.003906 -2548.796875 2240.828125 -2306.546875 C 2095.648438 -2064.296875 1968.941406 -1820.753906 1860.703125 -1575.921875 C 1752.460938 -1331.097656 1666.984375 -1079.398438 1604.265625 -820.828125 C 1541.554688 -562.253906 1510.203125 -288.644531 1510.203125 0 L 755.109375 0 C 755.109375 -302.382812 794.625 -594.890625 873.65625 -877.515625 C 952.6875 -1160.140625 1066.9375 -1447.921875 1216.40625 -1740.859375 C 1365.882812 -2033.796875 1637.347656 -2465.46875 2030.796875 -3035.875 L 226.796875 -3035.875 L 226.796875 -3631.203125 L 2703.421875 -3631.203125 Z M 2703.421875 -3056.5 "/>
</g>
<g id="glyph-0-5">
<path d="M 332.453125 0 L 332.453125 -538.625 L 1231.875 -538.625 L 1231.875 -3015.265625 L 360.796875 -2471.484375 L 360.796875 -3041.03125 L 1270.53125 -3631.203125 L 1956.0625 -3631.203125 L 1956.0625 -538.625 L 2788.46875 -538.625 L 2788.46875 0 Z M 332.453125 0 "/>
</g>
<g id="glyph-0-6">
<path d="M 182.984375 0 L 182.984375 -502.546875 C 277.472656 -710.429688 411.910156 -913.164062 586.296875 -1110.75 C 760.679688 -1308.332031 980.171875 -1514.503906 1244.765625 -1729.265625 C 1499.046875 -1935.441406 1677.296875 -2105.535156 1779.515625 -2239.546875 C 1881.742188 -2373.554688 1932.859375 -2504.988281 1932.859375 -2633.84375 C 1932.859375 -2949.976562 1773.9375 -3108.046875 1456.09375 -3108.046875 C 1301.457031 -3108.046875 1183.332031 -3066.378906 1101.71875 -2983.046875 C 1020.113281 -2899.722656 967.285156 -2774.734375 943.234375 -2608.078125 L 213.90625 -2649.3125 C 255.132812 -2986.0625 380.984375 -3242.914062 591.453125 -3419.875 C 801.921875 -3596.84375 1088.414062 -3685.328125 1450.9375 -3685.328125 C 1842.664062 -3685.328125 2143.332031 -3595.984375 2352.9375 -3417.296875 C 2562.539062 -3238.617188 2667.34375 -2987.773438 2667.34375 -2664.765625 C 2667.34375 -2494.679688 2633.835938 -2340.914062 2566.828125 -2203.46875 C 2499.828125 -2066.019531 2413.925781 -1939.304688 2309.125 -1823.328125 C 2204.320312 -1707.359375 2087.921875 -1598.6875 1959.921875 -1497.3125 C 1831.921875 -1395.945312 1707.785156 -1297.15625 1587.515625 -1200.9375 C 1467.253906 -1104.726562 1357.726562 -1007.660156 1258.9375 -909.734375 C 1160.144531 -811.804688 1086.695312 -707.003906 1038.59375 -595.328125 L 2724.046875 -595.328125 L 2724.046875 0 Z M 182.984375 0 "/>
</g>
<g id="glyph-0-7">
<path d="M 2422.515625 -739.640625 L 2422.515625 0 L 1731.84375 0 L 1731.84375 -739.640625 L 79.890625 -739.640625 L 79.890625 -1283.421875 L 1613.296875 -3631.203125 L 2422.515625 -3631.203125 L 2422.515625 -1278.265625 L 2907.03125 -1278.265625 L 2907.03125 -739.640625 Z M 1731.84375 -2466.328125 C 1731.84375 -2559.109375 1734.847656 -2659.617188 1740.859375 -2767.859375 C 1746.878906 -2876.097656 1751.601562 -2945.679688 1755.03125 -2976.609375 C 1710.363281 -2880.390625 1629.613281 -2741.222656 1512.78125 -2559.109375 L 670.0625 -1278.265625 L 1731.84375 -1278.265625 Z M 1731.84375 -2466.328125 "/>
</g>
<g id="glyph-0-8">
<path d="M 2739.515625 -1873.59375 C 2739.515625 -1229.300781 2621.820312 -747.367188 2386.4375 -427.796875 C 2151.0625 -108.234375 1816.890625 51.546875 1383.921875 51.546875 C 1064.359375 51.546875 813.945312 -16.742188 632.6875 -153.328125 C 451.425781 -289.921875 323 -505.976562 247.40625 -801.5 L 927.78125 -896.84375 C 994.78125 -644.28125 1149.40625 -518 1391.65625 -518 C 1594.394531 -518 1750.3125 -615.070312 1859.40625 -809.21875 C 1968.507812 -1003.363281 2024.78125 -1291.144531 2028.21875 -1672.5625 C 1962.925781 -1543.707031 1855.972656 -1442.769531 1707.359375 -1369.75 C 1558.742188 -1296.726562 1398.53125 -1260.21875 1226.71875 -1260.21875 C 907.15625 -1260.21875 653.304688 -1368.890625 465.171875 -1586.234375 C 277.046875 -1803.578125 182.984375 -2097.800781 182.984375 -2468.90625 C 182.984375 -2850.320312 293.367188 -3148.410156 514.140625 -3363.171875 C 734.921875 -3577.941406 1047.1875 -3685.328125 1450.9375 -3685.328125 C 1885.613281 -3685.328125 2209.046875 -3534.5625 2421.234375 -3233.03125 C 2633.421875 -2931.507812 2739.515625 -2478.363281 2739.515625 -1873.59375 Z M 1974.09375 -2381.28125 C 1974.09375 -2606.351562 1924.695312 -2785.460938 1825.90625 -2918.609375 C 1727.113281 -3051.765625 1596.109375 -3118.34375 1432.890625 -3118.34375 C 1273.109375 -3118.34375 1147.257812 -3060.359375 1055.34375 -2944.390625 C 963.425781 -2828.421875 917.46875 -2668.207031 917.46875 -2463.75 C 917.46875 -2262.738281 962.992188 -2101.664062 1054.046875 -1980.53125 C 1145.109375 -1859.40625 1272.25 -1798.84375 1435.46875 -1798.84375 C 1590.101562 -1798.84375 1718.53125 -1851.675781 1820.75 -1957.34375 C 1922.976562 -2063.007812 1974.09375 -2204.320312 1974.09375 -2381.28125 Z M 1974.09375 -2381.28125 "/>
</g>
<g id="glyph-0-9">
<path d="M 2744.65625 -1007.671875 C 2744.65625 -667.484375 2632.976562 -404.609375 2409.625 -219.046875 C 2186.28125 -33.492188 1868.4375 59.28125 1456.09375 59.28125 C 1066.082031 59.28125 755.960938 -30.488281 525.734375 -210.03125 C 295.515625 -389.570312 160.644531 -648.578125 121.125 -987.046875 L 858.1875 -1051.484375 C 904.582031 -702.703125 1103.023438 -528.3125 1453.515625 -528.3125 C 1627.035156 -528.3125 1761.898438 -571.265625 1858.109375 -657.171875 C 1954.328125 -743.078125 2002.4375 -874.515625 2002.4375 -1051.484375 C 2002.4375 -1212.984375 1944.019531 -1336.679688 1827.1875 -1422.578125 C 1710.363281 -1508.484375 1536.835938 -1551.4375 1306.609375 -1551.4375 L 1054.046875 -1551.4375 L 1054.046875 -2136.453125 L 1291.15625 -2136.453125 C 1499.039062 -2136.453125 1655.382812 -2178.972656 1760.1875 -2264.015625 C 1865 -2349.066406 1917.40625 -2470.625 1917.40625 -2628.6875 C 1917.40625 -2778.164062 1875.738281 -2895.425781 1792.40625 -2980.46875 C 1709.082031 -3065.519531 1587.523438 -3108.046875 1427.734375 -3108.046875 C 1278.265625 -3108.046875 1157.570312 -3066.8125 1065.65625 -2984.34375 C 973.738281 -2901.875 920.90625 -2785.039062 907.15625 -2633.84375 L 182.984375 -2685.390625 C 220.773438 -2998.085938 350.488281 -3242.914062 572.125 -3419.875 C 793.757812 -3596.84375 1083.257812 -3685.328125 1440.625 -3685.328125 C 1820.320312 -3685.328125 2117.125 -3599.847656 2331.03125 -3428.890625 C 2544.9375 -3257.941406 2651.890625 -3021.273438 2651.890625 -2718.890625 C 2651.890625 -2492.097656 2585.3125 -2305.679688 2452.15625 -2159.640625 C 2319 -2013.609375 2127.003906 -1916.539062 1876.171875 -1868.4375 L 1876.171875 -1858.125 C 2154.492188 -1825.476562 2368.820312 -1733.988281 2519.15625 -1583.65625 C 2669.488281 -1433.320312 2744.65625 -1241.328125 2744.65625 -1007.671875 Z M 2744.65625 -1007.671875 "/>
</g>
<g id="glyph-1-0">
<path d="M 1662.21875 1210.40625 C 1294.070312 1210.40625 997.976562 1140.21875 773.9375 999.84375 C 549.894531 859.46875 411.84375 659.128906 359.78125 398.828125 L 1143.46875 306.78125 C 1171.363281 427.632812 1231.328125 522.457031 1323.359375 591.25 C 1415.398438 660.050781 1535.789062 694.453125 1684.53125 694.453125 C 1902.070312 694.453125 2061.039062 627.515625 2161.4375 493.640625 C 2261.84375 359.773438 2312.046875 160.832031 2312.046875 -103.1875 L 2312.046875 -262.15625 L 2317.625 -560.578125 L 2312.046875 -560.578125 C 2139.128906 -190.578125 1815.609375 -5.578125 1341.484375 -5.578125 C 990.078125 -5.578125 717.6875 -137.585938 524.3125 -401.609375 C 330.945312 -665.628906 234.265625 -1043.070312 234.265625 -1533.9375 C 234.265625 -2026.644531 333.738281 -2406.867188 532.6875 -2674.609375 C 731.632812 -2942.347656 1020.757812 -3076.21875 1400.0625 -3076.21875 C 1838.851562 -3076.21875 2142.847656 -2894.9375 2312.046875 -2532.375 L 2326 -2532.375 C 2326 -2597.457031 2330.179688 -2685.773438 2338.546875 -2797.328125 C 2346.910156 -2908.890625 2355.742188 -2982.332031 2365.046875 -3017.65625 L 3106.90625 -3017.65625 C 3095.75 -2816.851562 3090.171875 -2584.441406 3090.171875 -2320.421875 L 3090.171875 -92.03125 C 3090.171875 337.46875 2968.382812 661.914062 2724.8125 881.3125 C 2481.25 1100.707031 2127.050781 1210.40625 1662.21875 1210.40625 Z M 2317.625 -1550.65625 C 2317.625 -1861.164062 2262.304688 -2103.34375 2151.671875 -2277.1875 C 2041.046875 -2451.03125 1883.472656 -2537.953125 1678.953125 -2537.953125 C 1260.609375 -2537.953125 1051.4375 -2203.28125 1051.4375 -1533.9375 C 1051.4375 -877.59375 1258.75 -549.421875 1673.375 -549.421875 C 1881.613281 -549.421875 2041.046875 -636.34375 2151.671875 -810.1875 C 2262.304688 -984.039062 2317.625 -1230.863281 2317.625 -1550.65625 Z M 2317.625 -1550.65625 "/>
</g>
<g id="glyph-1-1">
<path d="M 398.828125 0 L 398.828125 -4138.828125 L 1182.515625 -4138.828125 L 1182.515625 0 Z M 398.828125 0 "/>
</g>
<g id="glyph-1-2">
<path d="M 2353.890625 0 L 2353.890625 -1692.90625 C 2353.890625 -2222.800781 2174.460938 -2487.75 1815.609375 -2487.75 C 1625.960938 -2487.75 1473.035156 -2406.40625 1356.828125 -2243.71875 C 1240.617188 -2081.03125 1182.515625 -1872.320312 1182.515625 -1617.59375 L 1182.515625 0 L 398.828125 0 L 398.828125 -2342.734375 C 398.828125 -2504.492188 396.5 -2636.96875 391.84375 -2740.15625 C 387.195312 -2843.34375 382.085938 -2935.84375 376.515625 -3017.65625 L 1123.953125 -3017.65625 C 1129.523438 -2982.332031 1136.957031 -2887.972656 1146.25 -2734.578125 C 1155.550781 -2581.179688 1160.203125 -2475.664062 1160.203125 -2418.03125 L 1171.359375 -2418.03125 C 1277.335938 -2648.582031 1410.273438 -2815.914062 1570.171875 -2920.03125 C 1730.078125 -3024.15625 1920.660156 -3076.21875 2141.921875 -3076.21875 C 2461.722656 -3076.21875 2707.148438 -2977.675781 2878.203125 -2780.59375 C 3049.265625 -2583.507812 3134.796875 -2295.316406 3134.796875 -1916.015625 L 3134.796875 0 Z M 2353.890625 0 "/>
</g>
<g id="glyph-1-3">
<path d="M 2942.359375 -881.3125 C 2942.359375 -589.394531 2822.894531 -360.234375 2583.96875 -193.828125 C 2345.050781 -27.421875 2014.5625 55.78125 1592.5 55.78125 C 1177.875 55.78125 860.394531 -9.757812 640.0625 -140.84375 C 419.738281 -271.925781 273.320312 -475.984375 200.8125 -753.015625 L 889.671875 -856.21875 C 928.722656 -713.050781 996.125 -611.71875 1091.875 -552.21875 C 1187.632812 -492.71875 1354.507812 -462.96875 1592.5 -462.96875 C 1811.894531 -462.96875 1971.789062 -490.859375 2072.1875 -546.640625 C 2172.59375 -602.421875 2222.796875 -689.804688 2222.796875 -808.796875 C 2222.796875 -905.484375 2182.351562 -982.179688 2101.46875 -1038.890625 C 2020.59375 -1095.597656 1883.472656 -1143.472656 1690.109375 -1182.515625 C 1247.597656 -1269.910156 949.179688 -1351.253906 794.859375 -1426.546875 C 640.535156 -1501.847656 522.929688 -1599.460938 442.046875 -1719.390625 C 361.171875 -1839.316406 320.734375 -1986.671875 320.734375 -2161.453125 C 320.734375 -2449.640625 431.828125 -2674.144531 654.015625 -2834.96875 C 876.203125 -2995.800781 1190.890625 -3076.21875 1598.078125 -3076.21875 C 1956.921875 -3076.21875 2245.578125 -3006.492188 2464.046875 -2867.046875 C 2682.515625 -2727.597656 2818.707031 -2525.863281 2872.625 -2261.84375 L 2178.1875 -2189.34375 C 2155.875 -2312.050781 2101.019531 -2403.617188 2013.625 -2464.046875 C 1926.238281 -2524.472656 1787.722656 -2554.6875 1598.078125 -2554.6875 C 1412.140625 -2554.6875 1272.6875 -2530.976562 1179.71875 -2483.5625 C 1086.757812 -2436.15625 1040.28125 -2356.671875 1040.28125 -2245.109375 C 1040.28125 -2157.722656 1076.070312 -2088.460938 1147.65625 -2037.328125 C 1219.238281 -1986.203125 1339.628906 -1943.90625 1508.828125 -1910.4375 C 1744.960938 -1862.09375 1954.597656 -1812.351562 2137.734375 -1761.21875 C 2320.878906 -1710.09375 2467.765625 -1649.203125 2578.390625 -1578.546875 C 2689.023438 -1507.898438 2777.34375 -1417.257812 2843.34375 -1306.625 C 2909.351562 -1196 2942.359375 -1054.226562 2942.359375 -881.3125 Z M 2942.359375 -881.3125 "/>
</g>
<g id="glyph-1-4">
<path d="M 1171.359375 -2415.25 C 1277.335938 -2645.800781 1410.273438 -2813.132812 1570.171875 -2917.25 C 1730.078125 -3021.375 1920.660156 -3073.4375 2141.921875 -3073.4375 C 2461.722656 -3073.4375 2707.148438 -2974.890625 2878.203125 -2777.796875 C 3049.265625 -2580.710938 3134.796875 -2292.523438 3134.796875 -1913.234375 L 3134.796875 0 L 2353.890625 0 L 2353.890625 -1690.109375 C 2353.890625 -2220.015625 2174.460938 -2484.96875 1815.609375 -2484.96875 C 1625.960938 -2484.96875 1473.035156 -2403.617188 1356.828125 -2240.921875 C 1240.617188 -2078.234375 1182.515625 -1869.53125 1182.515625 -1614.8125 L 1182.515625 0 L 398.828125 0 L 398.828125 -4138.828125 L 1182.515625 -4138.828125 L 1182.515625 -3009.296875 C 1182.515625 -2806.628906 1175.078125 -2608.613281 1160.203125 -2415.25 Z M 1171.359375 -2415.25 "/>
</g>
<g id="glyph-1-5">
<path d="M 1171.359375 50.203125 C 940.804688 50.203125 763.242188 -12.546875 638.671875 -138.046875 C 514.097656 -263.554688 451.8125 -453.671875 451.8125 -708.390625 L 451.8125 -2487.75 L 69.71875 -2487.75 L 69.71875 -3017.65625 L 490.859375 -3017.65625 L 736.28125 -3726.0625 L 1227.140625 -3726.0625 L 1227.140625 -3017.65625 L 1798.875 -3017.65625 L 1798.875 -2487.75 L 1227.140625 -2487.75 L 1227.140625 -920.359375 C 1227.140625 -773.472656 1255.03125 -665.164062 1310.8125 -595.4375 C 1366.59375 -525.71875 1453.050781 -490.859375 1570.1875 -490.859375 C 1631.539062 -490.859375 1718.925781 -503.875 1832.34375 -529.90625 L 1832.34375 -44.625 C 1638.976562 18.59375 1418.648438 50.203125 1171.359375 50.203125 Z M 1171.359375 50.203125 "/>
</g>
<g id="glyph-1-6">
<path d="M 1096.0625 55.78125 C 804.15625 55.78125 576.390625 -23.703125 412.765625 -182.671875 C 249.148438 -341.648438 167.34375 -565.234375 167.34375 -853.421875 C 167.34375 -1165.785156 269.140625 -1402.847656 472.734375 -1564.609375 C 676.328125 -1726.367188 971.488281 -1810.96875 1358.21875 -1818.40625 L 2008.046875 -1829.5625 L 2008.046875 -1982.953125 C 2008.046875 -2180.035156 1973.648438 -2326.453125 1904.859375 -2422.203125 C 1836.066406 -2517.960938 1723.578125 -2565.84375 1567.390625 -2565.84375 C 1422.367188 -2565.84375 1315.925781 -2532.835938 1248.0625 -2466.828125 C 1180.195312 -2400.828125 1137.894531 -2291.597656 1121.15625 -2139.140625 L 304 -2178.1875 C 354.195312 -2471.957031 488.53125 -2694.609375 707 -2846.140625 C 925.46875 -2997.671875 1223.421875 -3073.4375 1600.859375 -3073.4375 C 1982.023438 -3073.4375 2275.796875 -2979.539062 2482.171875 -2791.75 C 2688.554688 -2603.957031 2791.75 -2337.144531 2791.75 -1991.3125 L 2791.75 -892.46875 C 2791.75 -723.269531 2810.804688 -606.597656 2848.921875 -542.453125 C 2887.035156 -478.304688 2950.71875 -446.234375 3039.96875 -446.234375 C 3099.46875 -446.234375 3157.109375 -451.8125 3212.890625 -462.96875 L 3212.890625 -39.046875 C 3166.398438 -27.890625 3124.5625 -17.660156 3087.375 -8.359375 C 3050.195312 0.929688 3013.015625 8.363281 2975.828125 13.9375 C 2938.640625 19.519531 2899.128906 24.171875 2857.296875 27.890625 C 2815.460938 31.609375 2766.65625 33.46875 2710.875 33.46875 C 2513.789062 33.46875 2368.300781 -14.867188 2274.40625 -111.546875 C 2180.507812 -208.234375 2124.265625 -350.472656 2105.671875 -538.265625 L 2088.9375 -538.265625 C 1869.53125 -142.234375 1538.570312 55.78125 1096.0625 55.78125 Z M 2008.046875 -1397.265625 L 1606.4375 -1391.6875 C 1424.226562 -1384.25 1295.003906 -1364.257812 1218.765625 -1331.71875 C 1142.535156 -1299.1875 1084.429688 -1249.453125 1044.453125 -1182.515625 C 1004.484375 -1115.585938 984.5 -1026.34375 984.5 -914.78125 C 984.5 -771.613281 1017.5 -665.164062 1083.5 -595.4375 C 1149.507812 -525.71875 1237.363281 -490.859375 1347.0625 -490.859375 C 1469.78125 -490.859375 1581.804688 -524.320312 1683.140625 -591.25 C 1784.472656 -658.1875 1863.957031 -750.6875 1921.59375 -868.75 C 1979.226562 -986.820312 2008.046875 -1111.863281 2008.046875 -1243.875 Z M 2008.046875 -1397.265625 "/>
</g>
<g id="glyph-1-7">
<path d="M 1137.890625 -3017.65625 L 1137.890625 -1324.75 C 1137.890625 -794.851562 1316.382812 -529.90625 1673.375 -529.90625 C 1863.03125 -529.90625 2015.957031 -611.25 2132.15625 -773.9375 C 2248.363281 -936.625 2306.46875 -1145.332031 2306.46875 -1400.0625 L 2306.46875 -3017.65625 L 3090.171875 -3017.65625 L 3090.171875 -674.921875 C 3090.171875 -418.335938 3097.609375 -193.363281 3112.484375 0 L 2365.046875 0 C 2342.734375 -267.738281 2331.578125 -467.613281 2331.578125 -599.625 L 2317.625 -599.625 C 2213.507812 -370.925781 2081.035156 -204.515625 1920.203125 -100.390625 C 1759.367188 3.722656 1568.320312 55.78125 1347.0625 55.78125 C 1027.269531 55.78125 781.84375 -42.296875 610.78125 -238.453125 C 439.726562 -434.609375 354.203125 -722.335938 354.203125 -1101.640625 L 354.203125 -3017.65625 Z M 1137.890625 -3017.65625 "/>
</g>
<g id="glyph-1-8">
<path d="M 3254.71875 -1522.78125 C 3254.71875 -1018.90625 3153.847656 -629.84375 2952.109375 -355.59375 C 2750.378906 -81.34375 2465.441406 55.78125 2097.296875 55.78125 C 1885.335938 55.78125 1700.800781 9.765625 1543.6875 -82.265625 C 1386.582031 -174.304688 1266.191406 -306.785156 1182.515625 -479.703125 L 1165.78125 -479.703125 C 1176.9375 -423.921875 1182.515625 -254.722656 1182.515625 27.890625 L 1182.515625 1185.3125 L 398.828125 1185.3125 L 398.828125 -2323.203125 C 398.828125 -2607.679688 391.390625 -2839.164062 376.515625 -3017.65625 L 1137.890625 -3017.65625 C 1147.191406 -2984.1875 1155.09375 -2918.179688 1161.59375 -2819.640625 C 1168.101562 -2721.097656 1171.359375 -2623.484375 1171.359375 -2526.796875 L 1182.515625 -2526.796875 C 1359.148438 -2896.796875 1680.8125 -3081.796875 2147.5 -3081.796875 C 2498.90625 -3081.796875 2771.289062 -2946.53125 2964.65625 -2676 C 3158.03125 -2405.476562 3254.71875 -2021.070312 3254.71875 -1522.78125 Z M 2437.546875 -1522.78125 C 2437.546875 -2199.5625 2230.234375 -2537.953125 1815.609375 -2537.953125 C 1607.367188 -2537.953125 1447.929688 -2446.84375 1337.296875 -2264.625 C 1226.671875 -2082.414062 1171.359375 -1827.695312 1171.359375 -1500.46875 C 1171.359375 -1175.082031 1226.671875 -923.609375 1337.296875 -746.046875 C 1447.929688 -568.484375 1605.507812 -479.703125 1810.03125 -479.703125 C 2228.375 -479.703125 2437.546875 -827.394531 2437.546875 -1522.78125 Z M 2437.546875 -1522.78125 "/>
</g>
<g id="glyph-2-0">
<path d="M 2269.828125 0 L 2269.828125 -1632.4375 C 2269.828125 -2143.414062 2096.8125 -2398.90625 1750.78125 -2398.90625 C 1567.894531 -2398.90625 1420.425781 -2320.460938 1308.375 -2163.578125 C 1196.320312 -2006.703125 1140.296875 -1805.453125 1140.296875 -1559.828125 L 1140.296875 0 L 384.578125 0 L 384.578125 -2259.0625 C 384.578125 -2415.039062 382.332031 -2542.785156 377.84375 -2642.296875 C 373.363281 -2741.804688 368.4375 -2831.003906 363.0625 -2909.890625 L 1083.8125 -2909.890625 C 1089.1875 -2875.828125 1096.359375 -2784.835938 1105.328125 -2636.921875 C 1114.296875 -2489.003906 1118.78125 -2387.253906 1118.78125 -2331.671875 L 1129.53125 -2331.671875 C 1231.726562 -2553.992188 1359.921875 -2715.351562 1514.109375 -2815.75 C 1668.296875 -2916.15625 1852.070312 -2966.359375 2065.4375 -2966.359375 C 2373.8125 -2966.359375 2610.472656 -2871.332031 2775.421875 -2681.28125 C 2940.367188 -2491.238281 3022.84375 -2213.34375 3022.84375 -1847.59375 L 3022.84375 0 Z M 2269.828125 0 "/>
</g>
<g id="glyph-2-1">
<path d="M 1056.921875 53.78125 C 775.429688 53.78125 555.796875 -22.863281 398.015625 -176.15625 C 240.242188 -329.445312 161.359375 -545.039062 161.359375 -822.9375 C 161.359375 -1124.144531 259.519531 -1352.738281 455.84375 -1508.71875 C 652.164062 -1664.707031 936.789062 -1746.289062 1309.71875 -1753.46875 L 1936.34375 -1764.21875 L 1936.34375 -1912.140625 C 1936.34375 -2102.179688 1903.171875 -2243.367188 1836.828125 -2335.703125 C 1770.492188 -2428.046875 1662.023438 -2474.21875 1511.421875 -2474.21875 C 1371.578125 -2474.21875 1268.929688 -2442.390625 1203.484375 -2378.734375 C 1138.046875 -2315.085938 1097.257812 -2209.753906 1081.125 -2062.734375 L 293.140625 -2100.390625 C 341.546875 -2383.671875 471.082031 -2598.367188 681.75 -2744.484375 C 892.414062 -2890.609375 1179.726562 -2963.671875 1543.6875 -2963.671875 C 1911.238281 -2963.671875 2194.519531 -2873.128906 2393.53125 -2692.046875 C 2592.539062 -2510.960938 2692.046875 -2253.679688 2692.046875 -1920.203125 L 2692.046875 -860.59375 C 2692.046875 -697.4375 2710.421875 -584.929688 2747.171875 -523.078125 C 2783.929688 -461.222656 2845.34375 -430.296875 2931.40625 -430.296875 C 2988.78125 -430.296875 3044.359375 -435.675781 3098.140625 -446.4375 L 3098.140625 -37.65625 C 3053.316406 -26.894531 3012.976562 -17.03125 2977.125 -8.0625 C 2941.269531 0.894531 2905.410156 8.0625 2869.546875 13.4375 C 2833.691406 18.820312 2795.59375 23.304688 2755.25 26.890625 C 2714.90625 30.472656 2667.84375 32.265625 2614.0625 32.265625 C 2424.007812 32.265625 2283.710938 -14.347656 2193.171875 -107.578125 C 2102.628906 -200.804688 2048.394531 -337.960938 2030.46875 -519.046875 L 2014.328125 -519.046875 C 1802.765625 -137.160156 1483.628906 53.78125 1056.921875 53.78125 Z M 1936.34375 -1347.375 L 1549.078125 -1341.984375 C 1373.367188 -1334.816406 1248.757812 -1315.546875 1175.25 -1284.171875 C 1101.738281 -1252.796875 1045.707031 -1204.832031 1007.15625 -1140.28125 C 968.613281 -1075.738281 949.34375 -989.679688 949.34375 -882.109375 C 949.34375 -744.054688 981.164062 -641.410156 1044.8125 -574.171875 C 1108.46875 -506.941406 1193.1875 -473.328125 1298.96875 -473.328125 C 1417.289062 -473.328125 1525.304688 -505.597656 1623.015625 -570.140625 C 1720.734375 -634.691406 1797.382812 -723.890625 1852.96875 -837.734375 C 1908.550781 -951.585938 1936.34375 -1072.160156 1936.34375 -1199.453125 Z M 1936.34375 -1347.375 "/>
</g>
<g id="glyph-2-2">
<path d="M 1602.859375 1167.1875 C 1247.859375 1167.1875 962.335938 1099.503906 746.296875 964.140625 C 530.253906 828.773438 397.128906 635.585938 346.921875 384.578125 L 1102.640625 295.828125 C 1129.535156 412.367188 1187.351562 503.804688 1276.09375 570.140625 C 1364.84375 636.484375 1480.9375 669.65625 1624.375 669.65625 C 1834.144531 669.65625 1987.4375 605.109375 2084.25 476.015625 C 2181.070312 346.929688 2229.484375 155.09375 2229.484375 -99.5 L 2229.484375 -252.796875 L 2234.859375 -540.5625 L 2229.484375 -540.5625 C 2062.742188 -183.769531 1750.773438 -5.375 1293.578125 -5.375 C 954.722656 -5.375 692.0625 -132.671875 505.59375 -387.265625 C 319.132812 -641.859375 225.90625 -1005.820312 225.90625 -1479.15625 C 225.90625 -1954.269531 321.828125 -2320.914062 513.671875 -2579.09375 C 705.515625 -2837.269531 984.3125 -2966.359375 1350.0625 -2966.359375 C 1773.1875 -2966.359375 2066.328125 -2791.550781 2229.484375 -2441.9375 L 2242.921875 -2441.9375 C 2242.921875 -2504.6875 2246.953125 -2589.847656 2255.015625 -2697.421875 C 2263.085938 -2805.003906 2271.609375 -2875.828125 2280.578125 -2909.890625 L 2995.953125 -2909.890625 C 2985.191406 -2716.253906 2979.8125 -2492.140625 2979.8125 -2237.546875 L 2979.8125 -88.75 C 2979.8125 325.414062 2862.375 638.28125 2627.5 849.84375 C 2392.632812 1061.40625 2051.085938 1167.1875 1602.859375 1167.1875 Z M 2234.859375 -1495.28125 C 2234.859375 -1794.695312 2181.519531 -2028.222656 2074.84375 -2195.859375 C 1968.164062 -2363.492188 1816.21875 -2447.3125 1619 -2447.3125 C 1215.59375 -2447.3125 1013.890625 -2124.59375 1013.890625 -1479.15625 C 1013.890625 -846.25 1213.796875 -529.796875 1613.609375 -529.796875 C 1814.421875 -529.796875 1968.164062 -613.613281 2074.84375 -781.25 C 2181.519531 -948.894531 2234.859375 -1186.90625 2234.859375 -1495.28125 Z M 2234.859375 -1495.28125 "/>
</g>
</g>
</defs>
<rect x="-18000" y="-14400" width="216000" height="172800" fill="rgb(100%, 100%, 100%)" fill-opacity="1"/>
<path fill="none" stroke-width="252.885894" stroke-linecap="round" stroke-linejoin="round" stroke="rgb(100%, 100%, 100%)" stroke-opacity="1" stroke-miterlimit="10" d="M 126520.777344 123555.058594 L 20769.230469 58925.464844 "/>
<path fill="none" stroke-width="474.446668" stroke-linecap="round" stroke-linejoin="round" stroke="rgb(100%, 96.078431%, 95.686275%)" stroke-opacity="1" stroke-miterlimit="10" d="M 152964.578125 62755.019531 L 47213.03125 127384.617188 "/>
<path fill="none" stroke-width="1119.67109" stroke-linecap="round" stroke-linejoin="round" stroke="rgb(86.27451%, 96.470588%, 86.27451%)" stroke-opacity="1" stroke-miterlimit="10" d="M 125443.21875 127384.617188 L 47213.03125 127384.617188 "/>
<path fill="none" stroke-width="1245.30747" stroke-linecap="round" stroke-linejoin="round" stroke="rgb(84.313725%, 96.078431%, 84.313725%)" stroke-opacity="1" stroke-miterlimit="10" d="M 44566.902344 120534.167969 L 20769.230469 58925.464844 "/>
<path fill="none" stroke-width="1254.710624" stroke-linecap="round" stroke-linejoin="round" stroke="rgb(100%, 82.745098%, 81.960784%)" stroke-opacity="1" stroke-miterlimit="10" d="M 83733.808594 20444.941406 L 20769.230469 58925.464844 "/>
<path fill="none" stroke-width="2124.160333" stroke-linecap="round" stroke-linejoin="round" stroke="rgb(70.980392%, 92.54902%, 70.588235%)" stroke-opacity="1" stroke-miterlimit="10" d="M 87353.867188 23465.832031 L 47213.03125 127384.617188 "/>
<path fill="none" stroke-width="3019.541694" stroke-linecap="round" stroke-linejoin="round" stroke="rgb(100%, 52.54902%, 50.196078%)" stroke-opacity="1" stroke-miterlimit="10" d="M 96266.191406 20444.941406 L 159230.769531 58925.464844 "/>
<path fill="none" stroke-width="3652.65419" stroke-linecap="round" stroke-linejoin="round" stroke="rgb(47.058824%, 86.666667%, 46.666667%)" stroke-opacity="1" stroke-miterlimit="10" d="M 92646.132812 23465.832031 L 132786.96875 127384.617188 "/>
<path fill="none" stroke-width="3684.262363" stroke-linecap="round" stroke-linejoin="round" stroke="rgb(46.666667%, 86.666667%, 46.27451%)" stroke-opacity="1" stroke-miterlimit="10" d="M 156584.636719 65775.914062 L 132786.96875 127384.617188 "/>
<path fill-rule="nonzero" fill="rgb(100%, 100%, 100%)" fill-opacity="1" d="M 68509.503906 93056.261719 L 78780.503906 93056.261719 L 78780.503906 89424.261719 L 68509.503906 89424.261719 Z M 68509.503906 93056.261719 "/>
<path fill-rule="nonzero" fill="rgb(100%, 100%, 100%)" fill-opacity="1" d="M 94074.304688 96885.816406 L 106103.304688 96885.816406 L 106103.304688 93253.816406 L 94074.304688 93253.816406 Z M 94074.304688 96885.816406 "/>
<path fill-rule="nonzero" fill="rgb(100%, 100%, 100%)" fill-opacity="1" d="M 81192.625 129200.617188 L 91463.625 129200.617188 L 91463.625 125568.617188 L 81192.625 125568.617188 Z M 81192.625 129200.617188 "/>
<path fill-rule="nonzero" fill="rgb(100%, 100%, 100%)" fill-opacity="1" d="M 27532.566406 91545.816406 L 37803.566406 91545.816406 L 37803.566406 87913.816406 L 27532.566406 87913.816406 Z M 27532.566406 91545.816406 "/>
<path fill-rule="nonzero" fill="rgb(100%, 100%, 100%)" fill-opacity="1" d="M 46237.019531 41501.203125 L 58266.019531 41501.203125 L 58266.019531 37869.203125 L 46237.019531 37869.203125 Z M 46237.019531 41501.203125 "/>
<path fill-rule="nonzero" fill="rgb(100%, 100%, 100%)" fill-opacity="1" d="M 62147.949219 77241.222656 L 72418.949219 77241.222656 L 72418.949219 73609.222656 L 62147.949219 73609.222656 Z M 62147.949219 77241.222656 "/>
<path fill-rule="nonzero" fill="rgb(100%, 100%, 100%)" fill-opacity="1" d="M 121733.980469 41501.203125 L 133762.980469 41501.203125 L 133762.980469 37869.203125 L 121733.980469 37869.203125 Z M 121733.980469 41501.203125 "/>
<path fill-rule="nonzero" fill="rgb(100%, 100%, 100%)" fill-opacity="1" d="M 107581.050781 77241.222656 L 117852.050781 77241.222656 L 117852.050781 73609.222656 L 107581.050781 73609.222656 Z M 107581.050781 77241.222656 "/>
<path fill-rule="nonzero" fill="rgb(100%, 100%, 100%)" fill-opacity="1" d="M 139550.304688 98396.265625 L 149821.304688 98396.265625 L 149821.304688 94764.265625 L 139550.304688 94764.265625 Z M 139550.304688 98396.265625 "/>
<g fill="rgb(100%, 100%, 100%)" fill-opacity="1">
<use xlink:href="#glyph-0-0" x="68509.503906" y="93055.291016"/>
<use xlink:href="#glyph-0-1" x="71444.503906" y="93055.291016"/>
<use xlink:href="#glyph-0-0" x="72910.503906" y="93055.291016"/>
<use xlink:href="#glyph-0-2" x="75845.503906" y="93055.291016"/>
</g>
<g fill="rgb(100%, 96.078431%, 95.686275%)" fill-opacity="1">
<use xlink:href="#glyph-0-3" x="94074.304688" y="96884.845703"/>
<use xlink:href="#glyph-0-0" x="95832.304688" y="96884.845703"/>
<use xlink:href="#glyph-0-1" x="98767.304688" y="96884.845703"/>
<use xlink:href="#glyph-0-0" x="100233.304688" y="96884.845703"/>
<use xlink:href="#glyph-0-4" x="103168.304688" y="96884.845703"/>
</g>
<g fill="rgb(86.27451%, 96.470588%, 86.27451%)" fill-opacity="1">
<use xlink:href="#glyph-0-0" x="81192.625" y="129199.646484"/>
<use xlink:href="#glyph-0-1" x="84127.625" y="129199.646484"/>
<use xlink:href="#glyph-0-5" x="85593.625" y="129199.646484"/>
<use xlink:href="#glyph-0-6" x="88528.625" y="129199.646484"/>
</g>
<g fill="rgb(84.313725%, 96.078431%, 84.313725%)" fill-opacity="1">
<use xlink:href="#glyph-0-0" x="27532.566406" y="91544.845703"/>
<use xlink:href="#glyph-0-1" x="30467.566406" y="91544.845703"/>
<use xlink:href="#glyph-0-5" x="31933.566406" y="91544.845703"/>
<use xlink:href="#glyph-0-7" x="34868.566406" y="91544.845703"/>
</g>
<g fill="rgb(100%, 82.745098%, 81.960784%)" fill-opacity="1">
<use xlink:href="#glyph-0-3" x="46237.019531" y="41500.232422"/>
<use xlink:href="#glyph-0-0" x="47995.019531" y="41500.232422"/>
<use xlink:href="#glyph-0-1" x="50930.019531" y="41500.232422"/>
<use xlink:href="#glyph-0-5" x="52396.019531" y="41500.232422"/>
<use xlink:href="#glyph-0-7" x="55331.019531" y="41500.232422"/>
</g>
<g fill="rgb(70.980392%, 92.54902%, 70.588235%)" fill-opacity="1">
<use xlink:href="#glyph-0-0" x="62147.949219" y="77240.251953"/>
<use xlink:href="#glyph-0-1" x="65082.949219" y="77240.251953"/>
<use xlink:href="#glyph-0-6" x="66548.949219" y="77240.251953"/>
<use xlink:href="#glyph-0-5" x="69483.949219" y="77240.251953"/>
</g>
<g fill="rgb(100%, 52.54902%, 50.196078%)" fill-opacity="1">
<use xlink:href="#glyph-0-3" x="121733.980469" y="41500.232422"/>
<use xlink:href="#glyph-0-0" x="123491.980469" y="41500.232422"/>
<use xlink:href="#glyph-0-1" x="126426.980469" y="41500.232422"/>
<use xlink:href="#glyph-0-6" x="127892.980469" y="41500.232422"/>
<use xlink:href="#glyph-0-8" x="130827.980469" y="41500.232422"/>
</g>
<g fill="rgb(47.058824%, 86.666667%, 46.666667%)" fill-opacity="1">
<use xlink:href="#glyph-0-0" x="107581.050781" y="77240.251953"/>
<use xlink:href="#glyph-0-1" x="110516.050781" y="77240.251953"/>
<use xlink:href="#glyph-0-9" x="111982.050781" y="77240.251953"/>
<use xlink:href="#glyph-0-7" x="114917.050781" y="77240.251953"/>
</g>
<g fill="rgb(46.666667%, 86.666667%, 46.27451%)" fill-opacity="1">
<use xlink:href="#glyph-0-0" x="139550.304688" y="98395.294922"/>
<use xlink:href="#glyph-0-1" x="142485.304688" y="98395.294922"/>
<use xlink:href="#glyph-0-9" x="143951.304688" y="98395.294922"/>
<use xlink:href="#glyph-0-7" x="146886.304688" y="98395.294922"/>
</g>
<path fill-rule="nonzero" fill="rgb(20%, 20%, 20%)" fill-opacity="1" stroke-width="242.554959" stroke-linecap="round" stroke-linejoin="round" stroke="rgb(0%, 0%, 0%)" stroke-opacity="1" stroke-miterlimit="10" d="M 90000 9271.636719 L 90465.769531 9286.421875 L 90929.664062 9330.71875 L 91389.8125 9404.347656 L 91844.367188 9507.011719 L 92291.496094 9638.300781 L 92729.394531 9797.683594 L 93156.304688 9984.519531 L 93570.507812 10198.054688 L 93970.332031 10437.429688 L 94354.167969 10701.683594 L 94720.46875 10989.746094 L 95067.765625 11300.464844 L 95394.65625 11632.582031 L 95699.824219 11984.765625 L 95982.042969 12355.59375 L 96240.171875 12743.574219 L 96473.171875 13147.144531 L 96680.109375 13564.679688 L 96860.148438 13994.5 L 97012.5625 14434.875 L 97136.738281 14884.03125 L 97232.179688 15340.15625 L 97298.5 15801.417969 L 97335.429688 16265.953125 L 97342.824219 16731.898438 L 97320.652344 17197.375 L 97269 17660.507812 L 97188.078125 18119.433594 L 97078.214844 18572.300781 L 96939.847656 19017.289062 L 96773.539062 19452.605469 L 96579.953125 19876.5 L 96359.871094 20287.257812 L 96114.183594 20683.234375 L 95843.875 21062.828125 L 95550.035156 21424.515625 L 95233.847656 21766.839844 L 94896.585938 22088.417969 L 94539.605469 22387.960938 L 94164.34375 22664.257812 L 93772.316406 22916.199219 L 93365.101562 23142.769531 L 92944.332031 23343.054688 L 92511.710938 23516.25 L 92068.972656 23661.660156 L 91617.90625 23778.695312 L 91160.324219 23866.886719 L 90698.066406 23925.878906 L 90233.003906 23955.4375 L 89766.996094 23955.4375 L 89301.933594 23925.878906 L 88839.675781 23866.886719 L 88382.09375 23778.695312 L 87931.027344 23661.660156 L 87488.289062 23516.25 L 87055.667969 23343.054688 L 86634.898438 23142.769531 L 86227.683594 22916.199219 L 85835.65625 22664.257812 L 85460.394531 22387.960938 L 85103.414062 22088.417969 L 84766.152344 21766.839844 L 84449.964844 21424.515625 L 84156.125 21062.828125 L 83885.816406 20683.234375 L 83640.128906 20287.257812 L 83420.046875 19876.5 L 83226.460938 19452.605469 L 83060.152344 19017.289062 L 82921.785156 18572.300781 L 82811.921875 18119.433594 L 82731 17660.507812 L 82679.347656 17197.375 L 82657.175781 16731.898438 L 82664.570312 16265.953125 L 82701.5 15801.417969 L 82767.820312 15340.15625 L 82863.261719 14884.03125 L 82987.4375 14434.875 L 83139.851562 13994.5 L 83319.890625 13564.679688 L 83526.828125 13147.144531 L 83759.828125 12743.574219 L 84017.957031 12355.59375 L 84300.175781 11984.765625 L 84605.34375 11632.582031 L 84932.234375 11300.464844 L 85279.53125 10989.746094 L 85645.832031 10701.683594 L 86029.667969 10437.429688 L 86429.492188 10198.054688 L 86843.695312 9984.519531 L 87270.605469 9797.683594 L 87708.503906 9638.300781 L 88155.632812 9507.011719 L 88610.1875 9404.347656 L 89070.335938 9330.71875 L 89534.230469 9286.421875 Z M 90000 9271.636719 "/>
<path fill-rule="nonzero" fill="rgb(20%, 20%, 20%)" fill-opacity="1" stroke-width="242.554959" stroke-linecap="round" stroke-linejoin="round" stroke="rgb(0%, 0%, 0%)" stroke-opacity="1" stroke-miterlimit="10" d="M 159230.769531 51581.71875 L 159696.539062 51596.503906 L 160160.433594 51640.800781 L 160620.582031 51714.429688 L 161075.136719 51817.09375 L 161522.265625 51948.382812 L 161960.164062 52107.765625 L 162387.074219 52294.601562 L 162801.277344 52508.136719 L 163201.097656 52747.511719 L 163584.9375 53011.761719 L 163951.238281 53299.828125 L 164298.535156 53610.546875 L 164625.425781 53942.664062 L 164930.59375 54294.84375 L 165212.808594 54665.671875 L 165470.9375 55053.65625 L 165703.941406 55457.226562 L 165910.878906 55874.761719 L 166090.917969 56304.582031 L 166243.332031 56744.957031 L 166367.507812 57194.113281 L 166462.949219 57650.238281 L 166529.269531 58111.496094 L 166566.199219 58576.035156 L 166573.59375 59041.980469 L 166551.421875 59507.457031 L 166499.769531 59970.589844 L 166418.847656 60429.515625 L 166308.984375 60882.382812 L 166170.617188 61327.371094 L 166004.308594 61762.6875 L 165810.722656 62186.578125 L 165590.640625 62597.339844 L 165344.953125 62993.316406 L 165074.644531 63372.910156 L 164780.804688 63734.597656 L 164464.617188 64076.921875 L 164127.351562 64398.5 L 163770.375 64698.042969 L 163395.113281 64974.339844 L 163003.085938 65226.28125 L 162595.871094 65452.851562 L 162175.101562 65653.136719 L 161742.480469 65826.332031 L 161299.742188 65971.742188 L 160848.675781 66088.777344 L 160391.089844 66176.96875 L 159928.835938 66235.960938 L 159463.769531 66265.515625 L 158997.765625 66265.515625 L 158532.703125 66235.960938 L 158070.445312 66176.96875 L 157612.863281 66088.777344 L 157161.796875 65971.742188 L 156719.058594 65826.332031 L 156286.4375 65653.136719 L 155865.667969 65452.851562 L 155458.453125 65226.28125 L 155066.425781 64974.339844 L 154691.164062 64698.042969 L 154334.183594 64398.5 L 153996.921875 64076.921875 L 153680.734375 63734.597656 L 153386.894531 63372.910156 L 153116.585938 62993.316406 L 152870.894531 62597.339844 L 152650.816406 62186.578125 L 152457.230469 61762.6875 L 152290.921875 61327.371094 L 152152.554688 60882.382812 L 152042.691406 60429.515625 L 151961.769531 59970.589844 L 151910.117188 59507.457031 L 151887.945312 59041.980469 L 151895.339844 58576.035156 L 151932.269531 58111.496094 L 151998.589844 57650.238281 L 152094.027344 57194.113281 L 152218.207031 56744.957031 L 152370.621094 56304.582031 L 152550.660156 55874.761719 L 152757.597656 55457.226562 L 152990.597656 55053.65625 L 153248.726562 54665.671875 L 153530.945312 54294.84375 L 153836.113281 53942.664062 L 154163.003906 53610.546875 L 154510.296875 53299.828125 L 154876.601562 53011.761719 L 155260.4375 52747.511719 L 155660.261719 52508.136719 L 156074.464844 52294.601562 L 156501.375 52107.765625 L 156939.273438 51948.382812 L 157386.402344 51817.09375 L 157840.957031 51714.429688 L 158301.105469 51640.800781 L 158765 51596.503906 Z M 159230.769531 51581.71875 "/>
<path fill-rule="nonzero" fill="rgb(20%, 20%, 20%)" fill-opacity="1" stroke-width="242.554959" stroke-linecap="round" stroke-linejoin="round" stroke="rgb(0%, 0%, 0%)" stroke-opacity="1" stroke-miterlimit="10" d="M 132786.96875 120040.867188 L 133252.738281 120055.652344 L 133716.632812 120099.949219 L 134176.78125 120173.578125 L 134631.335938 120276.242188 L 135078.464844 120407.53125 L 135516.363281 120566.914062 L 135943.273438 120753.75 L 136357.476562 120967.285156 L 136757.296875 121206.660156 L 137141.136719 121470.914062 L 137507.4375 121758.976562 L 137854.734375 122069.695312 L 138181.625 122401.8125 L 138486.792969 122753.996094 L 138769.007812 123124.824219 L 139027.136719 123512.804688 L 139260.140625 123916.375 L 139467.078125 124333.910156 L 139647.117188 124763.734375 L 139799.53125 125204.105469 L 139923.707031 125653.261719 L 140019.148438 126109.386719 L 140085.46875 126570.648438 L 140122.398438 127035.1875 L 140129.792969 127501.132812 L 140107.621094 127966.605469 L 140055.96875 128429.738281 L 139975.046875 128888.664062 L 139865.183594 129341.53125 L 139726.816406 129786.519531 L 139560.507812 130221.835938 L 139366.921875 130645.730469 L 139146.839844 131056.488281 L 138901.152344 131452.464844 L 138630.84375 131832.0625 L 138337.003906 132193.75 L 138020.816406 132536.070312 L 137683.550781 132857.648438 L 137326.574219 133157.191406 L 136951.3125 133433.488281 L 136559.285156 133685.429688 L 136152.070312 133912 L 135731.300781 134112.285156 L 135298.679688 134285.480469 L 134855.941406 134430.890625 L 134404.875 134547.925781 L 133947.289062 134636.117188 L 133485.035156 134695.109375 L 133019.96875 134724.667969 L 132553.964844 134724.667969 L 132088.902344 134695.109375 L 131626.644531 134636.117188 L 131169.0625 134547.925781 L 130717.996094 134430.890625 L 130275.257812 134285.480469 L 129842.636719 134112.285156 L 129421.867188 133912 L 129014.652344 133685.429688 L 128622.625 133433.488281 L 128247.363281 133157.191406 L 127890.382812 132857.648438 L 127553.121094 132536.070312 L 127236.933594 132193.75 L 126943.09375 131832.0625 L 126672.785156 131452.464844 L 126427.09375 131056.488281 L 126207.015625 130645.730469 L 126013.429688 130221.835938 L 125847.121094 129786.519531 L 125708.753906 129341.53125 L 125598.890625 128888.664062 L 125517.96875 128429.738281 L 125466.316406 127966.605469 L 125444.144531 127501.132812 L 125451.539062 127035.1875 L 125488.46875 126570.648438 L 125554.789062 126109.386719 L 125650.226562 125653.261719 L 125774.40625 125204.105469 L 125926.820312 124763.734375 L 126106.859375 124333.910156 L 126313.796875 123916.375 L 126546.796875 123512.804688 L 126804.925781 123124.824219 L 127087.144531 122753.996094 L 127392.3125 122401.8125 L 127719.203125 122069.695312 L 128066.496094 121758.976562 L 128432.800781 121470.914062 L 128816.636719 121206.660156 L 129216.460938 120967.285156 L 129630.664062 120753.75 L 130057.574219 120566.914062 L 130495.472656 120407.53125 L 130942.601562 120276.242188 L 131397.15625 120173.578125 L 131857.304688 120099.949219 L 132321.199219 120055.652344 Z M 132786.96875 120040.867188 "/>
<path fill-rule="nonzero" fill="rgb(20%, 20%, 20%)" fill-opacity="1" stroke-width="242.554959" stroke-linecap="round" stroke-linejoin="round" stroke="rgb(0%, 0%, 0%)" stroke-opacity="1" stroke-miterlimit="10" d="M 47213.03125 120040.867188 L 47678.800781 120055.652344 L 48142.695312 120099.949219 L 48602.84375 120173.578125 L 49057.398438 120276.242188 L 49504.527344 120407.53125 L 49942.425781 120566.914062 L 50369.335938 120753.75 L 50783.539062 120967.285156 L 51183.363281 121206.660156 L 51567.199219 121470.914062 L 51933.503906 121758.976562 L 52280.796875 122069.695312 L 52607.6875 122401.8125 L 52912.855469 122753.996094 L 53195.074219 123124.824219 L 53453.203125 123512.804688 L 53686.203125 123916.375 L 53893.140625 124333.910156 L 54073.179688 124763.734375 L 54225.59375 125204.105469 L 54349.773438 125653.261719 L 54445.210938 126109.386719 L 54511.53125 126570.648438 L 54548.460938 127035.1875 L 54555.855469 127501.132812 L 54533.683594 127966.605469 L 54482.03125 128429.738281 L 54401.109375 128888.664062 L 54291.246094 129341.53125 L 54152.878906 129786.519531 L 53986.570312 130221.835938 L 53792.984375 130645.730469 L 53572.90625 131056.488281 L 53327.214844 131452.464844 L 53056.90625 131832.0625 L 52763.066406 132193.75 L 52446.878906 132536.070312 L 52109.617188 132857.648438 L 51752.636719 133157.191406 L 51377.375 133433.488281 L 50985.347656 133685.429688 L 50578.132812 133912 L 50157.363281 134112.285156 L 49724.742188 134285.480469 L 49282.003906 134430.890625 L 48830.9375 134547.925781 L 48373.355469 134636.117188 L 47911.097656 134695.109375 L 47446.035156 134724.667969 L 46980.03125 134724.667969 L 46514.964844 134695.109375 L 46052.710938 134636.117188 L 45595.125 134547.925781 L 45144.058594 134430.890625 L 44701.320312 134285.480469 L 44268.699219 134112.285156 L 43847.929688 133912 L 43440.714844 133685.429688 L 43048.6875 133433.488281 L 42673.425781 133157.191406 L 42316.449219 132857.648438 L 41979.183594 132536.070312 L 41662.996094 132193.75 L 41369.15625 131832.0625 L 41098.847656 131452.464844 L 40853.160156 131056.488281 L 40633.078125 130645.730469 L 40439.492188 130221.835938 L 40273.183594 129786.519531 L 40134.816406 129341.53125 L 40024.953125 128888.664062 L 39944.03125 128429.738281 L 39892.378906 127966.605469 L 39870.207031 127501.132812 L 39877.601562 127035.1875 L 39914.53125 126570.648438 L 39980.851562 126109.386719 L 40076.292969 125653.261719 L 40200.46875 125204.105469 L 40352.882812 124763.734375 L 40532.921875 124333.910156 L 40739.859375 123916.375 L 40972.863281 123512.804688 L 41230.992188 123124.824219 L 41513.207031 122753.996094 L 41818.375 122401.8125 L 42145.265625 122069.695312 L 42492.5625 121758.976562 L 42858.863281 121470.914062 L 43242.703125 121206.660156 L 43642.523438 120967.285156 L 44056.726562 120753.75 L 44483.636719 120566.914062 L 44921.535156 120407.53125 L 45368.664062 120276.242188 L 45823.21875 120173.578125 L 46283.367188 120099.949219 L 46747.261719 120055.652344 Z M 47213.03125 120040.867188 "/>
<path fill-rule="nonzero" fill="rgb(20%, 20%, 20%)" fill-opacity="1" stroke-width="242.554959" stroke-linecap="round" stroke-linejoin="round" stroke="rgb(0%, 0%, 0%)" stroke-opacity="1" stroke-miterlimit="10" d="M 20769.230469 51581.71875 L 21235 51596.503906 L 21698.894531 51640.800781 L 22159.042969 51714.429688 L 22613.597656 51817.09375 L 23060.726562 51948.382812 L 23498.625 52107.765625 L 23925.535156 52294.601562 L 24339.738281 52508.136719 L 24739.5625 52747.511719 L 25123.398438 53011.761719 L 25489.703125 53299.828125 L 25836.996094 53610.546875 L 26163.886719 53942.664062 L 26469.054688 54294.84375 L 26751.273438 54665.671875 L 27009.402344 55053.65625 L 27242.402344 55457.226562 L 27449.339844 55874.761719 L 27629.378906 56304.582031 L 27781.792969 56744.957031 L 27905.972656 57194.113281 L 28001.410156 57650.238281 L 28067.730469 58111.496094 L 28104.660156 58576.035156 L 28112.054688 59041.980469 L 28089.882812 59507.457031 L 28038.230469 59970.589844 L 27957.308594 60429.515625 L 27847.445312 60882.382812 L 27709.078125 61327.371094 L 27542.769531 61762.6875 L 27349.183594 62186.578125 L 27129.105469 62597.339844 L 26883.414062 62993.316406 L 26613.105469 63372.910156 L 26319.265625 63734.597656 L 26003.078125 64076.921875 L 25665.816406 64398.5 L 25308.835938 64698.042969 L 24933.574219 64974.339844 L 24541.546875 65226.28125 L 24134.332031 65452.851562 L 23713.5625 65653.136719 L 23280.941406 65826.332031 L 22838.203125 65971.742188 L 22387.136719 66088.777344 L 21929.554688 66176.96875 L 21467.296875 66235.960938 L 21002.234375 66265.515625 L 20536.230469 66265.515625 L 20071.164062 66235.960938 L 19608.910156 66176.96875 L 19151.324219 66088.777344 L 18700.257812 65971.742188 L 18257.519531 65826.332031 L 17824.898438 65653.136719 L 17404.128906 65452.851562 L 16996.914062 65226.28125 L 16604.886719 64974.339844 L 16229.625 64698.042969 L 15872.648438 64398.5 L 15535.382812 64076.921875 L 15219.195312 63734.597656 L 14925.355469 63372.910156 L 14655.046875 62993.316406 L 14409.359375 62597.339844 L 14189.277344 62186.578125 L 13995.691406 61762.6875 L 13829.382812 61327.371094 L 13691.015625 60882.382812 L 13581.152344 60429.515625 L 13500.230469 59970.589844 L 13448.578125 59507.457031 L 13426.40625 59041.980469 L 13433.800781 58576.035156 L 13470.730469 58111.496094 L 13537.050781 57650.238281 L 13632.492188 57194.113281 L 13756.667969 56744.957031 L 13909.082031 56304.582031 L 14089.121094 55874.761719 L 14296.058594 55457.226562 L 14529.0625 55053.65625 L 14787.191406 54665.671875 L 15069.40625 54294.84375 L 15374.574219 53942.664062 L 15701.464844 53610.546875 L 16048.761719 53299.828125 L 16415.0625 53011.761719 L 16798.902344 52747.511719 L 17198.722656 52508.136719 L 17612.925781 52294.601562 L 18039.835938 52107.765625 L 18477.734375 51948.382812 L 18924.863281 51817.09375 L 19379.417969 51714.429688 L 19839.566406 51640.800781 L 20303.460938 51596.503906 Z M 20769.230469 51581.71875 "/>
<g fill="rgb(100%, 100%, 100%)" fill-opacity="1">
<use xlink:href="#glyph-1-0" x="85717.5" y="18580.126953"/>
<use xlink:href="#glyph-1-1" x="89206.5" y="18580.126953"/>
<use xlink:href="#glyph-1-2" x="90793.5" y="18580.126953"/>
</g>
<g fill="rgb(100%, 100%, 100%)" fill-opacity="1">
<use xlink:href="#glyph-2-0" x="152803.769531" y="60819.541016"/>
<use xlink:href="#glyph-2-1" x="156167.769531" y="60819.541016"/>
<use xlink:href="#glyph-2-1" x="159230.769531" y="60819.541016"/>
<use xlink:href="#glyph-2-2" x="162293.769531" y="60819.541016"/>
</g>
<g fill="rgb(100%, 100%, 100%)" fill-opacity="1">
<use xlink:href="#glyph-1-0" x="127709.46875" y="129349.361328"/>
<use xlink:href="#glyph-1-3" x="131198.46875" y="129349.361328"/>
<use xlink:href="#glyph-1-4" x="134375.46875" y="129349.361328"/>
</g>
<g fill="rgb(100%, 100%, 100%)" fill-opacity="1">
<use xlink:href="#glyph-1-5" x="42929.03125" y="129349.361328"/>
<use xlink:href="#glyph-1-6" x="44831.03125" y="129349.361328"/>
<use xlink:href="#glyph-1-7" x="48008.03125" y="129349.361328"/>
</g>
<g fill="rgb(100%, 100%, 100%)" fill-opacity="1">
<use xlink:href="#glyph-1-6" x="15847.730469" y="60890.208984"/>
<use xlink:href="#glyph-1-3" x="19024.730469" y="60890.208984"/>
<use xlink:href="#glyph-1-8" x="22201.730469" y="60890.208984"/>
</g>
</svg>
