<?xml version="1.0" encoding="UTF-8"?>
<svg xmlns="http://www.w3.org/2000/svg" xmlns:xlink="http://www.w3.org/1999/xlink" width="180000" height="144000" viewBox="0 0 180000 144000">
<defs>
<g>
<g id="glyph-0-0">
<path d="M 1572.84375 -1805.078125 L 137.234375 -1805.078125 L 137.234375 -1092.546875 L 1572.84375 -1092.546875 Z M 1572.84375 -1805.078125 "/>
</g>
<g id="glyph-0-1">
<path d="M 1440.890625 -3821.265625 C 1039.765625 -3821.265625 696.703125 -3652.375 469.734375 -3340.96875 C 253.34375 -3050.6875 153.0625 -2575.65625 153.0625 -1847.296875 C 153.0625 -1182.265625 237.515625 -717.8125 416.96875 -432.796875 C 638.640625 -73.890625 1002.8125 121.390625 1440.890625 121.390625 C 1847.296875 121.390625 2179.8125 -42.21875 2412.046875 -353.625 C 2623.171875 -643.921875 2728.71875 -1124.21875 2728.71875 -1826.1875 C 2728.71875 -2512.328125 2644.28125 -2976.796875 2464.828125 -3267.078125 C 2243.15625 -3625.984375 1878.96875 -3821.265625 1440.890625 -3821.265625 Z M 1440.890625 -3224.859375 C 1630.90625 -3224.859375 1783.96875 -3119.296875 1873.6875 -2924.015625 C 1947.578125 -2765.671875 1989.8125 -2359.265625 1989.8125 -1842.015625 C 1989.8125 -1419.78125 1952.859375 -1008.09375 1894.796875 -855.03125 C 1810.359375 -633.359375 1652.015625 -511.96875 1440.890625 -511.96875 C 1245.609375 -511.96875 1097.828125 -612.25 1008.09375 -802.25 C 934.203125 -960.59375 891.984375 -1351.171875 891.984375 -1852.578125 C 891.984375 -2295.9375 928.921875 -2718.171875 986.984375 -2871.234375 C 1066.15625 -3098.1875 1229.78125 -3224.859375 1440.890625 -3224.859375 Z M 1440.890625 -3224.859375 "/>
</g>
<g id="glyph-0-2">
<path d="M 1129.484375 -770.59375 L 337.796875 -770.59375 L 337.796875 0 L 1129.484375 0 Z M 1129.484375 -770.59375 "/>
</g>
<g id="glyph-0-3">
<path d="M 2580.9375 -3742.109375 L 580.578125 -3742.109375 L 248.0625 -1657.296875 L 913.09375 -1657.296875 C 992.265625 -1842.015625 1161.15625 -1942.296875 1388.109375 -1942.296875 C 1762.859375 -1942.296875 1989.8125 -1673.125 1989.8125 -1219.21875 C 1989.8125 -781.140625 1762.859375 -511.96875 1388.109375 -511.96875 C 1066.15625 -511.96875 886.703125 -675.578125 870.875 -976.4375 L 142.5 -976.4375 C 153.0625 -321.953125 649.1875 121.390625 1377.5625 121.390625 C 2179.8125 121.390625 2728.71875 -427.515625 2728.71875 -1235.046875 C 2728.71875 -2005.640625 2253.703125 -2528.15625 1562.28125 -2528.15625 C 1314.21875 -2528.15625 1129.484375 -2464.828125 913.09375 -2301.203125 L 1034.484375 -3082.359375 L 2580.9375 -3082.359375 Z M 2580.9375 -3742.109375 "/>
</g>
<g id="glyph-0-4">
<path d="M 200.5625 -870.875 C 216.390625 -295.5625 701.96875 126.671875 1345.890625 126.671875 C 1826.1875 126.671875 2190.375 -73.890625 2412.046875 -453.90625 C 2607.328125 -786.421875 2723.453125 -1351.171875 2723.453125 -1952.859375 C 2723.453125 -2501.765625 2639 -2924.015625 2464.828125 -3209.03125 C 2227.3125 -3610.15625 1857.859375 -3821.265625 1409.21875 -3821.265625 C 659.75 -3821.265625 147.78125 -3282.921875 147.78125 -2501.765625 C 147.78125 -1731.1875 601.6875 -1203.390625 1266.71875 -1203.390625 C 1456.734375 -1203.390625 1636.1875 -1256.15625 1752.296875 -1340.609375 C 1820.90625 -1388.109375 1863.140625 -1435.609375 1984.53125 -1572.84375 C 1984.53125 -849.765625 1783.96875 -506.6875 1367 -506.6875 C 1103.109375 -506.6875 928.921875 -649.1875 913.09375 -870.875 Z M 1388.109375 -3219.578125 C 1747.015625 -3219.578125 1968.6875 -2945.125 1968.6875 -2501.765625 C 1968.6875 -2090.09375 1741.734375 -1815.625 1398.671875 -1815.625 C 1060.875 -1815.625 849.765625 -2079.53125 849.765625 -2512.328125 C 849.765625 -2945.125 1055.59375 -3219.578125 1388.109375 -3219.578125 Z M 1388.109375 -3219.578125 "/>
</g>
<g id="glyph-0-5">
<path d="M 1145.328125 -1673.125 C 1430.34375 -1673.125 1446.171875 -1673.125 1578.125 -1636.1875 C 1826.1875 -1567.5625 1984.53125 -1351.171875 1984.53125 -1076.71875 C 1984.53125 -744.203125 1752.296875 -511.96875 1430.34375 -511.96875 C 1081.984375 -511.96875 891.984375 -712.53125 870.875 -1097.828125 L 153.0625 -1097.828125 C 158.34375 -348.34375 643.921875 121.390625 1414.5 121.390625 C 2211.484375 121.390625 2723.453125 -348.34375 2723.453125 -1076.71875 C 2723.453125 -1514.78125 2533.4375 -1799.796875 2111.203125 -2005.640625 C 2454.265625 -2222.03125 2602.046875 -2459.546875 2602.046875 -2802.625 C 2602.046875 -3425.421875 2137.59375 -3821.265625 1414.5 -3821.265625 C 870.875 -3821.265625 453.90625 -3583.765625 290.296875 -3177.359375 C 221.671875 -2997.90625 200.5625 -2876.515625 200.5625 -2565.109375 L 886.703125 -2565.109375 C 891.984375 -2765.671875 907.8125 -2865.953125 944.765625 -2960.953125 C 1013.375 -3124.578125 1182.265625 -3224.859375 1398.671875 -3224.859375 C 1694.234375 -3224.859375 1863.140625 -3045.40625 1863.140625 -2734 C 1863.140625 -2353.984375 1646.734375 -2169.265625 1208.65625 -2169.265625 L 1145.328125 -2169.265625 Z M 1145.328125 -1673.125 "/>
</g>
<g id="glyph-0-6">
<path d="M 2158.703125 -2037.3125 C 2285.375 -2105.921875 2343.4375 -2142.875 2401.484375 -2195.640625 C 2554.546875 -2338.15625 2644.28125 -2565.109375 2644.28125 -2807.890625 C 2644.28125 -3393.75 2137.59375 -3821.265625 1446.171875 -3821.265625 C 749.46875 -3821.265625 242.78125 -3393.75 242.78125 -2802.625 C 242.78125 -2443.71875 390.578125 -2216.765625 728.359375 -2037.3125 C 295.5625 -1799.796875 116.109375 -1520.0625 116.109375 -1076.71875 C 116.109375 -369.453125 659.75 121.390625 1446.171875 121.390625 C 2227.3125 121.390625 2770.953125 -369.453125 2770.953125 -1076.71875 C 2770.953125 -1520.0625 2591.5 -1799.796875 2158.703125 -2037.3125 Z M 1451.453125 -3224.859375 C 1778.6875 -3224.859375 2005.640625 -3024.296875 2005.640625 -2734 C 2005.640625 -2448.984375 1773.40625 -2243.15625 1451.453125 -2243.15625 C 1118.9375 -2243.15625 891.984375 -2443.71875 891.984375 -2739.28125 C 891.984375 -3024.296875 1118.9375 -3224.859375 1451.453125 -3224.859375 Z M 1440.890625 -1741.734375 C 1805.078125 -1741.734375 2032.03125 -1498.953125 2032.03125 -1108.375 C 2032.03125 -749.46875 1799.796875 -511.96875 1440.890625 -511.96875 C 1081.984375 -511.96875 855.03125 -749.46875 855.03125 -1118.9375 C 855.03125 -1498.953125 1081.984375 -1741.734375 1440.890625 -1741.734375 Z M 1440.890625 -1741.734375 "/>
</g>
<g id="glyph-1-0">
<path d="M 2335.765625 -3153.28125 L 2335.765625 -2668.609375 C 2108.03125 -3036.5 1856.9375 -3205.84375 1524.09375 -3205.84375 C 1243.796875 -3205.84375 934.3125 -3065.703125 718.25 -2837.953125 C 402.921875 -2510.953125 239.421875 -2055.46875 239.421875 -1500.734375 C 239.421875 -531.390625 753.28125 134.3125 1506.578125 134.3125 C 1845.25 134.3125 2049.640625 23.359375 2335.765625 -321.171875 L 2335.765625 105.109375 C 2335.765625 484.671875 2067.15625 747.453125 1681.75 747.453125 C 1389.78125 747.453125 1208.765625 618.984375 1144.53125 379.5625 L 303.65625 379.5625 C 309.484375 624.8125 397.078125 794.15625 613.140625 969.34375 C 864.234375 1173.71875 1208.765625 1273 1652.5625 1273 C 2563.5 1273 3112.40625 835.03125 3112.40625 105.109375 L 3112.40625 -3153.28125 Z M 1675.921875 -2522.625 C 2061.3125 -2522.625 2347.453125 -2096.359375 2347.453125 -1512.40625 C 2347.453125 -940.140625 2073 -548.90625 1664.234375 -548.90625 C 1308.03125 -548.90625 1056.9375 -940.140625 1056.9375 -1512.40625 C 1056.9375 -2108.03125 1308.03125 -2522.625 1675.921875 -2522.625 Z M 1675.921875 -2522.625 "/>
</g>
<g id="glyph-1-1">
<path d="M 1156.203125 -3153.28125 L 338.6875 -3153.28125 L 338.6875 1273 L 1156.203125 1273 L 1156.203125 -373.71875 C 1354.75 -23.359375 1635.03125 140.140625 2032.125 140.140625 C 2791.25 140.140625 3351.828125 -572.265625 3351.828125 -1529.921875 C 3351.828125 -1973.71875 3223.359375 -2417.515625 3013.140625 -2709.484375 C 2802.921875 -3007.296875 2411.6875 -3205.84375 2032.125 -3205.84375 C 1635.03125 -3205.84375 1354.75 -3036.5 1156.203125 -2686.140625 Z M 1845.25 -2522.625 C 2259.859375 -2522.625 2534.3125 -2125.546875 2534.3125 -1518.25 C 2534.3125 -940.140625 2254.015625 -543.0625 1845.25 -543.0625 C 1430.65625 -543.0625 1156.203125 -940.140625 1156.203125 -1529.921875 C 1156.203125 -2125.546875 1430.65625 -2522.625 1845.25 -2522.625 Z M 1845.25 -2522.625 "/>
</g>
<g id="glyph-1-2">
<path d="M 3048.171875 -1973.71875 C 2989.78125 -2744.53125 2481.75 -3205.84375 1687.59375 -3205.84375 C 741.609375 -3205.84375 198.546875 -2586.859375 198.546875 -1512.40625 C 198.546875 -473 741.609375 134.3125 1675.921875 134.3125 C 2440.875 134.3125 2972.265625 -338.6875 3048.171875 -1091.96875 L 2265.703125 -1091.96875 C 2166.421875 -683.21875 2002.921875 -525.546875 1675.921875 -525.546875 C 1261.3125 -525.546875 1016.0625 -893.4375 1016.0625 -1512.40625 C 1016.0625 -1816.0625 1074.453125 -2090.515625 1173.71875 -2277.375 C 1267.15625 -2452.5625 1448.171875 -2545.984375 1681.75 -2545.984375 C 2014.59375 -2545.984375 2172.265625 -2388.328125 2265.703125 -1973.71875 Z M 3048.171875 -1973.71875 "/>
</g>
<g id="glyph-1-3">
<path d="M 1208.765625 -4256.9375 L 391.234375 -4256.9375 L 391.234375 0 L 1208.765625 0 Z M 1208.765625 -4256.9375 "/>
</g>
<g id="glyph-1-4">
<path d="M 3059.859375 -99.265625 C 2919.71875 -233.578125 2873 -327 2873 -484.671875 L 2873 -2236.5 C 2873 -2878.828125 2435.03125 -3205.84375 1582.484375 -3205.84375 C 729.921875 -3205.84375 286.125 -2843.796875 233.578125 -2113.875 L 1021.90625 -2113.875 C 1062.78125 -2440.875 1197.078125 -2545.984375 1600 -2545.984375 C 1915.328125 -2545.984375 2073 -2440.875 2073 -2230.65625 C 2073 -2125.546875 2020.4375 -2037.953125 1932.84375 -1985.40625 C 1821.90625 -1927.015625 1821.90625 -1927.015625 1418.984375 -1862.78125 L 1091.96875 -1804.375 C 467.15625 -1699.265625 163.5 -1378.109375 163.5 -811.671875 C 163.5 -245.25 543.0625 134.3125 1121.171875 134.3125 C 1471.53125 134.3125 1786.859375 -11.671875 2078.828125 -315.328125 C 2078.828125 -151.828125 2096.359375 -93.4375 2172.265625 0 L 3059.859375 0 Z M 2073 -1267.15625 C 2073 -794.15625 1839.421875 -525.546875 1424.8125 -525.546875 C 1150.359375 -525.546875 981.015625 -671.53125 981.015625 -905.109375 C 981.015625 -1150.359375 1109.484375 -1267.15625 1448.171875 -1337.234375 L 1728.46875 -1389.78125 C 1944.53125 -1430.65625 1979.5625 -1442.34375 2073 -1489.046875 Z M 2073 -1267.15625 "/>
</g>
<g id="glyph-2-0">
<path d="M 2252.34375 -3040.671875 L 2252.34375 -2573.3125 C 2032.75 -2928.0625 1790.625 -3091.34375 1469.65625 -3091.34375 C 1199.375 -3091.34375 900.9375 -2956.203125 692.59375 -2736.609375 C 388.53125 -2421.28125 230.859375 -1982.0625 230.859375 -1447.140625 C 230.859375 -512.40625 726.390625 129.515625 1452.765625 129.515625 C 1779.359375 129.515625 1976.4375 22.53125 2252.34375 -309.703125 L 2252.34375 101.359375 C 2252.34375 467.359375 1993.328125 720.75 1621.6875 720.75 C 1340.140625 720.75 1165.59375 596.875 1103.65625 366 L 292.8125 366 C 298.4375 602.5 382.90625 765.796875 591.234375 934.71875 C 833.375 1131.8125 1165.59375 1227.53125 1593.53125 1227.53125 C 2471.953125 1227.53125 3001.25 805.21875 3001.25 101.359375 L 3001.25 -3040.671875 Z M 1616.0625 -2432.53125 C 1987.703125 -2432.53125 2263.609375 -2021.484375 2263.609375 -1458.390625 C 2263.609375 -906.578125 1998.953125 -529.296875 1604.796875 -529.296875 C 1261.3125 -529.296875 1019.1875 -906.578125 1019.1875 -1458.390625 C 1019.1875 -2032.75 1261.3125 -2432.53125 1616.0625 -2432.53125 Z M 1616.0625 -2432.53125 "/>
</g>
<g id="glyph-2-1">
<path d="M 2950.578125 -95.71875 C 2815.4375 -225.234375 2770.390625 -315.328125 2770.390625 -467.359375 L 2770.390625 -2156.625 C 2770.390625 -2776.015625 2348.078125 -3091.34375 1525.96875 -3091.34375 C 703.859375 -3091.34375 275.90625 -2742.234375 225.234375 -2038.375 L 985.40625 -2038.375 C 1024.8125 -2353.703125 1154.328125 -2455.0625 1542.859375 -2455.0625 C 1846.921875 -2455.0625 1998.953125 -2353.703125 1998.953125 -2151 C 1998.953125 -2049.640625 1948.28125 -1965.171875 1863.8125 -1914.5 C 1756.828125 -1858.1875 1756.828125 -1858.1875 1368.296875 -1796.25 L 1052.96875 -1739.9375 C 450.46875 -1638.578125 157.671875 -1328.890625 157.671875 -782.6875 C 157.671875 -236.5 523.671875 129.515625 1081.125 129.515625 C 1418.984375 129.515625 1723.046875 -11.265625 2004.59375 -304.0625 C 2004.59375 -146.40625 2021.484375 -90.09375 2094.6875 0 L 2950.578125 0 Z M 1998.953125 -1221.90625 C 1998.953125 -765.796875 1773.71875 -506.78125 1373.9375 -506.78125 C 1109.28125 -506.78125 945.984375 -647.546875 945.984375 -872.78125 C 945.984375 -1109.28125 1069.859375 -1221.90625 1396.453125 -1289.46875 L 1666.734375 -1340.140625 C 1875.078125 -1379.5625 1908.859375 -1390.828125 1998.953125 -1435.875 Z M 1998.953125 -1221.90625 "/>
</g>
<g id="glyph-2-2">
<path d="M 332.21875 -4104.90625 L 332.21875 0 L 1120.546875 0 L 1120.546875 -309.703125 C 1312 -11.265625 1576.640625 129.515625 1959.546875 129.515625 C 2685.921875 129.515625 3237.75 -563.09375 3237.75 -1480.921875 C 3237.75 -1891.96875 3113.875 -2308.65625 2911.15625 -2601.46875 C 2702.8125 -2899.90625 2331.1875 -3091.34375 1959.546875 -3091.34375 C 1576.640625 -3091.34375 1312 -2950.578125 1120.546875 -2646.515625 L 1120.546875 -4104.90625 Z M 1784.984375 -2432.53125 C 2173.515625 -2432.53125 2449.4375 -2038.375 2449.4375 -1475.296875 C 2449.4375 -917.828125 2179.15625 -529.296875 1784.984375 -529.296875 C 1385.1875 -529.296875 1120.546875 -906.578125 1120.546875 -1492.1875 C 1120.546875 -2049.640625 1390.828125 -2432.53125 1784.984375 -2432.53125 Z M 1784.984375 -2432.53125 "/>
</g>
</g>
</defs>
<rect x="-18000" y="-14400" width="216000" height="172800" fill="rgb(100%, 100%, 100%)" fill-opacity="1"/>
<path fill="none" stroke-width="254.415377" stroke-linecap="round" stroke-linejoin="round" stroke="rgb(100%, 99.607843%, 99.607843%)" stroke-opacity="1" stroke-miterlimit="10" d="M 86020.859375 22982.007812 L 20769.230469 127384.617188 "/>
<path fill="none" stroke-width="687.365445" stroke-linecap="round" stroke-linejoin="round" stroke="rgb(100%, 92.54902%, 92.156863%)" stroke-opacity="1" stroke-miterlimit="10" d="M 93979.140625 22982.007812 L 159230.769531 127384.617188 "/>
<path fill="none" stroke-width="3761.600884" stroke-linecap="round" stroke-linejoin="round" stroke="rgb(100%, 41.176471%, 38.431373%)" stroke-opacity="1" stroke-miterlimit="10" d="M 151722.945312 127384.617188 L 20769.230469 127384.617188 "/>
<path fill-rule="nonzero" fill="rgb(100%, 100%, 100%)" fill-opacity="1" d="M 47380.046875 77107.3125 L 59410.046875 77107.3125 L 59410.046875 73259.3125 L 47380.046875 73259.3125 Z M 47380.046875 77107.3125 "/>
<path fill-rule="nonzero" fill="rgb(100%, 100%, 100%)" fill-opacity="1" d="M 120589.953125 77107.3125 L 132619.953125 77107.3125 L 132619.953125 73259.3125 L 120589.953125 73259.3125 Z M 120589.953125 77107.3125 "/>
<path fill-rule="nonzero" fill="rgb(100%, 100%, 100%)" fill-opacity="1" d="M 80231.085938 129308.617188 L 92261.085938 129308.617188 L 92261.085938 125460.617188 L 80231.085938 125460.617188 Z M 80231.085938 129308.617188 "/>
<g fill="rgb(100%, 99.607843%, 99.607843%)" fill-opacity="1">
<use xlink:href="#glyph-0-0" x="47380.046875" y="77106.970703"/>
<use xlink:href="#glyph-0-1" x="49138.046875" y="77106.970703"/>
<use xlink:href="#glyph-0-2" x="52073.046875" y="77106.970703"/>
<use xlink:href="#glyph-0-1" x="53540.046875" y="77106.970703"/>
<use xlink:href="#glyph-0-3" x="56475.046875" y="77106.970703"/>
</g>
<g fill="rgb(100%, 92.54902%, 92.156863%)" fill-opacity="1">
<use xlink:href="#glyph-0-0" x="120589.953125" y="77106.970703"/>
<use xlink:href="#glyph-0-1" x="122347.953125" y="77106.970703"/>
<use xlink:href="#glyph-0-2" x="125282.953125" y="77106.970703"/>
<use xlink:href="#glyph-0-1" x="126749.953125" y="77106.970703"/>
<use xlink:href="#glyph-0-4" x="129684.953125" y="77106.970703"/>
</g>
<g fill="rgb(100%, 41.176471%, 38.431373%)" fill-opacity="1">
<use xlink:href="#glyph-0-0" x="80231.085938" y="129308.275391"/>
<use xlink:href="#glyph-0-1" x="81989.085938" y="129308.275391"/>
<use xlink:href="#glyph-0-2" x="84924.085938" y="129308.275391"/>
<use xlink:href="#glyph-0-5" x="86391.085938" y="129308.275391"/>
<use xlink:href="#glyph-0-6" x="89326.085938" y="129308.275391"/>
</g>
<path fill-rule="nonzero" fill="rgb(20%, 20%, 20%)" fill-opacity="1" stroke-width="242.554959" stroke-linecap="round" stroke-linejoin="round" stroke="rgb(0%, 0%, 0%)" stroke-opacity="1" stroke-miterlimit="10" d="M 90000 9107.558594 L 90476.175781 9122.675781 L 90950.433594 9167.960938 L 91420.863281 9243.238281 L 91885.574219 9348.195312 L 92342.691406 9482.417969 L 92790.375 9645.359375 L 93226.824219 9836.371094 L 93650.28125 10054.675781 L 94059.035156 10299.402344 L 94451.449219 10569.558594 L 94825.9375 10864.058594 L 95180.992188 11181.714844 L 95515.1875 11521.253906 L 95827.171875 11881.304688 L 96115.691406 12260.417969 L 96379.589844 12657.070312 L 96617.796875 13069.65625 L 96829.355469 13496.523438 L 97013.417969 13935.945312 L 97169.238281 14386.160156 L 97296.191406 14845.347656 L 97393.765625 15311.664062 L 97461.566406 15783.230469 L 97499.320312 16258.148438 L 97506.878906 16734.503906 L 97484.210938 17210.378906 L 97431.40625 17683.859375 L 97348.675781 18153.039062 L 97236.359375 18616.023438 L 97094.898438 19070.953125 L 96924.875 19515.996094 L 96726.964844 19949.359375 L 96501.964844 20369.296875 L 96250.789062 20774.121094 L 95974.441406 21162.195312 L 95674.035156 21531.964844 L 95350.78125 21881.933594 L 95005.984375 22210.699219 L 94641.027344 22516.933594 L 94257.386719 22799.402344 L 93856.601562 23056.972656 L 93440.285156 23288.605469 L 93010.117188 23493.367188 L 92567.828125 23670.433594 L 92115.199219 23819.089844 L 91654.054688 23938.738281 L 91186.246094 24028.902344 L 90713.664062 24089.214844 L 90238.207031 24119.429688 L 89761.792969 24119.429688 L 89286.335938 24089.214844 L 88813.753906 24028.902344 L 88345.945312 23938.738281 L 87884.800781 23819.089844 L 87432.171875 23670.433594 L 86989.882812 23493.367188 L 86559.714844 23288.605469 L 86143.398438 23056.972656 L 85742.613281 22799.402344 L 85358.972656 22516.933594 L 84994.015625 22210.699219 L 84649.21875 21881.933594 L 84325.964844 21531.964844 L 84025.558594 21162.195312 L 83749.210938 20774.121094 L 83498.035156 20369.296875 L 83273.035156 19949.359375 L 83075.125 19515.996094 L 82905.101562 19070.953125 L 82763.640625 18616.023438 L 82651.324219 18153.039062 L 82568.59375 17683.859375 L 82515.789062 17210.378906 L 82493.121094 16734.503906 L 82500.679688 16258.148438 L 82538.433594 15783.230469 L 82606.234375 15311.664062 L 82703.808594 14845.347656 L 82830.761719 14386.160156 L 82986.582031 13935.945312 L 83170.644531 13496.523438 L 83382.203125 13069.65625 L 83620.410156 12657.070312 L 83884.308594 12260.417969 L 84172.828125 11881.304688 L 84484.8125 11521.253906 L 84819.007812 11181.714844 L 85174.0625 10864.058594 L 85548.550781 10569.558594 L 85940.964844 10299.402344 L 86349.71875 10054.675781 L 86773.175781 9836.371094 L 87209.625 9645.359375 L 87657.308594 9482.417969 L 88114.425781 9348.195312 L 88579.136719 9243.238281 L 89049.566406 9167.960938 L 89523.824219 9122.675781 Z M 90000 9107.558594 "/>
<path fill-rule="nonzero" fill="rgb(20%, 20%, 20%)" fill-opacity="1" stroke-width="242.554959" stroke-linecap="round" stroke-linejoin="round" stroke="rgb(0%, 0%, 0%)" stroke-opacity="1" stroke-miterlimit="10" d="M 159230.769531 119876.789062 L 159706.945312 119891.90625 L 160181.203125 119937.191406 L 160651.632812 120012.46875 L 161116.34375 120117.425781 L 161573.460938 120251.648438 L 162021.144531 120414.59375 L 162457.59375 120605.601562 L 162881.050781 120823.90625 L 163289.804688 121068.632812 L 163682.21875 121338.789062 L 164056.707031 121633.289062 L 164411.761719 121950.949219 L 164745.953125 122290.484375 L 165057.941406 122650.535156 L 165346.460938 123029.648438 L 165610.359375 123426.300781 L 165848.566406 123838.886719 L 166060.125 124265.753906 L 166244.1875 124705.175781 L 166400.007812 125155.390625 L 166526.960938 125614.578125 L 166624.53125 126080.894531 L 166692.332031 126552.460938 L 166730.089844 127027.378906 L 166737.648438 127503.734375 L 166714.980469 127979.609375 L 166662.175781 128453.089844 L 166579.445312 128922.269531 L 166467.125 129385.253906 L 166325.667969 129840.183594 L 166155.644531 130285.226562 L 165957.734375 130718.589844 L 165732.734375 131138.527344 L 165481.558594 131543.351562 L 165205.210938 131931.425781 L 164904.804688 132301.195312 L 164581.550781 132651.164062 L 164236.753906 132979.929688 L 163871.796875 133286.164062 L 163488.15625 133568.632812 L 163087.367188 133826.203125 L 162671.054688 134057.835938 L 162240.886719 134262.597656 L 161798.597656 134439.664062 L 161345.96875 134588.320312 L 160884.820312 134707.972656 L 160417.015625 134798.132812 L 159944.433594 134858.445312 L 159468.976562 134888.660156 L 158992.5625 134888.660156 L 158517.105469 134858.445312 L 158044.523438 134798.132812 L 157576.714844 134707.972656 L 157115.570312 134588.320312 L 156662.941406 134439.664062 L 156220.652344 134262.597656 L 155790.484375 134057.835938 L 155374.167969 133826.203125 L 154973.382812 133568.632812 L 154589.738281 133286.164062 L 154224.785156 132979.929688 L 153879.988281 132651.164062 L 153556.734375 132301.195312 L 153256.328125 131931.425781 L 152979.980469 131543.351562 L 152728.800781 131138.527344 L 152503.804688 130718.589844 L 152305.894531 130285.226562 L 152135.867188 129840.183594 L 151994.410156 129385.253906 L 151882.09375 128922.269531 L 151799.363281 128453.089844 L 151746.558594 127979.609375 L 151723.890625 127503.734375 L 151731.449219 127027.378906 L 151769.203125 126552.460938 L 151837.003906 126080.894531 L 151934.578125 125614.578125 L 152061.53125 125155.390625 L 152217.351562 124705.175781 L 152401.410156 124265.753906 L 152612.972656 123838.886719 L 152851.179688 123426.300781 L 153115.074219 123029.648438 L 153403.597656 122650.535156 L 153715.582031 122290.484375 L 154049.777344 121950.949219 L 154404.832031 121633.289062 L 154779.320312 121338.789062 L 155171.734375 121068.632812 L 155580.488281 120823.90625 L 156003.945312 120605.601562 L 156440.394531 120414.59375 L 156888.078125 120251.648438 L 157345.195312 120117.425781 L 157809.902344 120012.46875 L 158280.335938 119937.191406 L 158754.59375 119891.90625 Z M 159230.769531 119876.789062 "/>
<path fill-rule="nonzero" fill="rgb(20%, 20%, 20%)" fill-opacity="1" stroke-width="242.554959" stroke-linecap="round" stroke-linejoin="round" stroke="rgb(0%, 0%, 0%)" stroke-opacity="1" stroke-miterlimit="10" d="M 20769.230469 119876.789062 L 21245.40625 119891.90625 L 21719.664062 119937.191406 L 22190.097656 120012.46875 L 22654.804688 120117.425781 L 23111.921875 120251.648438 L 23559.605469 120414.59375 L 23996.054688 120605.601562 L 24419.511719 120823.90625 L 24828.265625 121068.632812 L 25220.679688 121338.789062 L 25595.167969 121633.289062 L 25950.222656 121950.949219 L 26284.417969 122290.484375 L 26596.402344 122650.535156 L 26884.925781 123029.648438 L 27148.820312 123426.300781 L 27387.027344 123838.886719 L 27598.589844 124265.753906 L 27782.648438 124705.175781 L 27938.46875 125155.390625 L 28065.421875 125614.578125 L 28162.996094 126080.894531 L 28230.796875 126552.460938 L 28268.550781 127027.378906 L 28276.109375 127503.734375 L 28253.441406 127979.609375 L 28200.636719 128453.089844 L 28117.90625 128922.269531 L 28005.589844 129385.253906 L 27864.132812 129840.183594 L 27694.105469 130285.226562 L 27496.195312 130718.589844 L 27271.199219 131138.527344 L 27020.019531 131543.351562 L 26743.671875 131931.425781 L 26443.265625 132301.195312 L 26120.011719 132651.164062 L 25775.214844 132979.929688 L 25410.261719 133286.164062 L 25026.617188 133568.632812 L 24625.832031 133826.203125 L 24209.515625 134057.835938 L 23779.347656 134262.597656 L 23337.058594 134439.664062 L 22884.429688 134588.320312 L 22423.285156 134707.972656 L 21955.476562 134798.132812 L 21482.894531 134858.445312 L 21007.4375 134888.660156 L 20531.023438 134888.660156 L 20055.566406 134858.445312 L 19582.984375 134798.132812 L 19115.179688 134707.972656 L 18654.03125 134588.320312 L 18201.402344 134439.664062 L 17759.113281 134262.597656 L 17328.945312 134057.835938 L 16912.632812 133826.203125 L 16511.84375 133568.632812 L 16128.203125 133286.164062 L 15763.246094 132979.929688 L 15418.449219 132651.164062 L 15095.195312 132301.195312 L 14794.789062 131931.425781 L 14518.441406 131543.351562 L 14267.265625 131138.527344 L 14042.265625 130718.589844 L 13844.355469 130285.226562 L 13674.332031 129840.183594 L 13532.875 129385.253906 L 13420.554688 128922.269531 L 13337.824219 128453.089844 L 13285.019531 127979.609375 L 13262.351562 127503.734375 L 13269.910156 127027.378906 L 13307.667969 126552.460938 L 13375.46875 126080.894531 L 13473.039062 125614.578125 L 13599.992188 125155.390625 L 13755.8125 124705.175781 L 13939.875 124265.753906 L 14151.433594 123838.886719 L 14389.640625 123426.300781 L 14653.539062 123029.648438 L 14942.058594 122650.535156 L 15254.046875 122290.484375 L 15588.238281 121950.949219 L 15943.292969 121633.289062 L 16317.78125 121338.789062 L 16710.195312 121068.632812 L 17118.949219 120823.90625 L 17542.40625 120605.601562 L 17978.855469 120414.59375 L 18426.539062 120251.648438 L 18883.65625 120117.425781 L 19348.367188 120012.46875 L 19818.796875 119937.191406 L 20293.054688 119891.90625 Z M 20769.230469 119876.789062 "/>
<g fill="rgb(100%, 100%, 100%)" fill-opacity="1">
<use xlink:href="#glyph-1-0" x="84817.5" y="18743.818359"/>
<use xlink:href="#glyph-1-1" x="88367.5" y="18743.818359"/>
<use xlink:href="#glyph-1-2" x="91935.5" y="18743.818359"/>
</g>
<g fill="rgb(100%, 100%, 100%)" fill-opacity="1">
<use xlink:href="#glyph-2-0" x="152665.269531" y="129437.019531"/>
<use xlink:href="#glyph-2-1" x="156094.269531" y="129437.019531"/>
<use xlink:href="#glyph-2-2" x="159225.269531" y="129437.019531"/>
<use xlink:href="#glyph-2-1" x="162665.269531" y="129437.019531"/>
</g>
<g fill="rgb(100%, 100%, 100%)" fill-opacity="1">
<use xlink:href="#glyph-1-3" x="16710.730469" y="129513.052734"/>
<use xlink:href="#glyph-1-4" x="18333.730469" y="129513.052734"/>
<use xlink:href="#glyph-1-2" x="21580.730469" y="129513.052734"/>
</g>
</svg>
